# xmcd
#
# Track frame offsets:
#	150
#	11537
#	22449
#	34943
#	43823
#	56102
#	65471
#	74861
#	84648
#	96916
#	109184
#	121646
#	134038
#	144720
#	157103
#
# Disc length: 2243 seconds
#
# Revision: 0
# Processed by: cddbd v1.5.2PL0 Copyright (c) Steve Scherf et al.
# Submitted via: EasyCDDAExtractor 16.0.0.1
#
DISCID=eb08c10f
DTITLE=Roy Orbison - The Real
DYEAR=2015
DGENRE=
TTITLE0=Let The Good Times Roll
TTITLE1=Only The Lonely
TTITLE2=(Say) You're My Girl
TTITLE3=Claudette
TTITLE4=Blue Angel
TTITLE5=Up Town
TTITLE6=Almost Eighteen
TTITLE7=Paper Boy
TTITLE8=I Can't Stop Loving You
TTITLE9=Candy Man
TTITLE10=I'm Hurtin'
TTITLE11=Pretty Paper
TTITLE12=Falling
TTITLE13=Summer Song
TTITLE14=With The Bug
EXTD=
EXTT0=
EXTT1=
EXTT2=
EXTT3=
EXTT4=
EXTT5=
EXTT6=
EXTT7=
EXTT8=
EXTT9=
EXTT10=
EXTT11=
EXTT12=
EXTT13=
EXTT14=
PLAYORDER=
